<svg width="109" height="35" viewBox="0 0 109 35" fill="none" xmlns="http://www.w3.org/2000/svg">
<g clip-path="url(#clip0)">
<path d="M44.9053 33.1338V35H44.6064V30.7168H45.626C46.1572 30.7168 46.5498 30.8154 46.8037 31.0127C47.0576 31.208 47.1846 31.5029 47.1846 31.8975C47.1846 32.1846 47.1084 32.4268 46.9561 32.624C46.8057 32.8213 46.5762 32.9629 46.2676 33.0488L47.4307 35H47.0732L45.9688 33.1338H44.9053ZM44.9053 32.876H45.7227C46.084 32.876 46.3643 32.7959 46.5635 32.6357C46.7627 32.4736 46.8623 32.2354 46.8623 31.9209C46.8623 31.5947 46.7646 31.3574 46.5693 31.209C46.374 31.0605 46.0557 30.9863 45.6143 30.9863H44.9053V32.876ZM53.0942 35H50.7534V30.7168H53.0942V30.9922H51.0522V32.6123H52.98V32.8877H51.0522V34.7246H53.0942V35ZM59.0068 33.8955C59.0068 34.2529 58.875 34.5361 58.6113 34.7451C58.3496 34.9541 58.0009 35.0586 57.5654 35.0586C57.042 35.0586 56.6406 35.001 56.3613 34.8857V34.5869C56.6699 34.7178 57.0634 34.7832 57.542 34.7832C57.8935 34.7832 58.1718 34.7031 58.3769 34.543C58.5839 34.3809 58.6875 34.1689 58.6875 33.9072C58.6875 33.7451 58.6533 33.6113 58.5849 33.5059C58.5166 33.3984 58.4052 33.3008 58.2509 33.2129C58.0966 33.125 57.8701 33.0303 57.5712 32.9287C57.1337 32.7783 56.831 32.6162 56.663 32.4424C56.497 32.2666 56.414 32.0332 56.414 31.7422C56.414 31.4219 56.539 31.1611 56.789 30.96C57.041 30.7568 57.3642 30.6553 57.7587 30.6553C58.1611 30.6553 58.539 30.7314 58.8925 30.8838L58.7841 31.1416C58.4287 30.9932 58.0888 30.9189 57.7646 30.9189C57.4482 30.9189 57.1962 30.9922 57.0087 31.1387C56.8212 31.2852 56.7275 31.4844 56.7275 31.7363C56.7275 31.8945 56.7558 32.0244 56.8125 32.126C56.8711 32.2275 56.9658 32.3193 57.0966 32.4014C57.2275 32.4814 57.4521 32.5781 57.7705 32.6914C58.1045 32.8066 58.3554 32.9189 58.5234 33.0283C58.6914 33.1357 58.8134 33.2588 58.8896 33.3975C58.9677 33.5342 59.0068 33.7002 59.0068 33.8955ZM63.6069 35H63.3051V30.998H61.9135V30.7168H64.9985V30.998H63.6069V35ZM71.8163 32.8525C71.8163 33.5322 71.6464 34.0703 71.3066 34.4668C70.9667 34.8613 70.498 35.0586 69.9003 35.0586C69.3046 35.0586 68.8368 34.8613 68.497 34.4668C68.1571 34.0703 67.9872 33.5303 67.9872 32.8467C67.9872 32.165 68.1581 31.6289 68.4999 31.2383C68.8437 30.8457 69.3124 30.6494 69.9062 30.6494C70.5038 30.6494 70.9716 30.8467 71.3095 31.2412C71.6474 31.6338 71.8163 32.1709 71.8163 32.8525ZM68.3124 32.8525C68.3124 33.4658 68.4491 33.9404 68.7226 34.2764C68.996 34.6104 69.3886 34.7773 69.9003 34.7773C70.4159 34.7773 70.8095 34.6113 71.081 34.2793C71.3544 33.9473 71.4911 33.4717 71.4911 32.8525C71.4911 32.2354 71.3544 31.7627 71.081 31.4346C70.8095 31.1045 70.4179 30.9395 69.9062 30.9395C69.3964 30.9395 69.0029 31.1055 68.7255 31.4375C68.4501 31.7695 68.3124 32.2412 68.3124 32.8525ZM88.2035 30.9248C87.6664 30.9248 87.2435 31.0967 86.9349 31.4404C86.6263 31.7842 86.472 32.2549 86.472 32.8525C86.472 33.4639 86.6175 33.9385 86.9086 34.2764C87.1996 34.6143 87.6156 34.7832 88.1566 34.7832C88.516 34.7832 88.8461 34.7373 89.1468 34.6455V34.9092C88.8636 35.0088 88.5101 35.0586 88.0863 35.0586C87.4847 35.0586 87.0111 34.8643 86.6654 34.4756C86.3197 34.0869 86.1468 33.5439 86.1468 32.8467C86.1468 32.4111 86.2289 32.0273 86.3929 31.6953C86.5589 31.3633 86.7962 31.1074 87.1048 30.9277C87.4154 30.7461 87.7757 30.6553 88.1859 30.6553C88.6039 30.6553 88.9779 30.7334 89.308 30.8896L89.1879 31.1592C88.8754 31.0029 88.5472 30.9248 88.2035 30.9248ZM94.743 33.4883H93.0028L92.4051 35H92.0741L93.7967 30.6992H93.9871L95.6746 35H95.3377L94.743 33.4883ZM93.1112 33.2188H94.6434L94.0604 31.6748C94.0116 31.5537 93.953 31.3857 93.8846 31.1709C93.8319 31.3584 93.7743 31.5283 93.7118 31.6807L93.1112 33.2188ZM99.1614 35H98.8626V30.7168H101.209V30.9922H99.1614V32.8086H101.095V33.0869H99.1614V35ZM106.794 35H104.453V30.7168H106.794V30.9922H104.752V32.6123H106.679V32.8877H104.752V34.7246H106.794V35Z" fill="black"/>
<path d="M77.2047 33.9131C77.2047 33.6436 77.276 33.4141 77.4186 33.2246C77.5631 33.0352 77.8317 32.835 78.2243 32.624L78.0045 32.3838C77.8756 32.2451 77.7799 32.1094 77.7174 31.9766C77.6549 31.8438 77.6237 31.7051 77.6237 31.5605C77.6237 31.2812 77.7164 31.0596 77.902 30.8955C78.0895 30.7314 78.3405 30.6494 78.6549 30.6494C78.9577 30.6494 79.1969 30.7285 79.3727 30.8867C79.5504 31.0449 79.6393 31.2637 79.6393 31.543C79.6393 31.748 79.5709 31.9365 79.4342 32.1084C79.2975 32.2783 79.0504 32.4678 78.693 32.6768L80.0172 34.0156C80.1364 33.875 80.2379 33.7217 80.3219 33.5557C80.4059 33.3896 80.4791 33.1934 80.5416 32.9668H80.8229C80.6998 33.4473 80.4957 33.8633 80.2106 34.2148L80.9899 35H80.5944L80.0289 34.4229C79.8493 34.5986 79.6891 34.7275 79.5485 34.8096C79.4079 34.8896 79.2536 34.9512 79.0856 34.9941C78.9196 35.0371 78.7301 35.0586 78.5172 35.0586C78.109 35.0586 77.7877 34.958 77.5534 34.7568C77.3209 34.5557 77.2047 34.2744 77.2047 33.9131ZM78.5377 34.7949C78.7877 34.7949 79.0163 34.7529 79.2233 34.6689C79.4323 34.583 79.6373 34.4395 79.8385 34.2383L78.4235 32.8174C78.1579 32.958 77.9655 33.0781 77.8463 33.1777C77.7291 33.2754 77.6432 33.3818 77.5885 33.4971C77.5358 33.6123 77.5094 33.7471 77.5094 33.9014C77.5094 34.1807 77.6002 34.3994 77.7819 34.5576C77.9635 34.7158 78.2155 34.7949 78.5377 34.7949ZM77.9371 31.5547C77.9371 31.709 77.9762 31.8516 78.0543 31.9824C78.1325 32.1133 78.2809 32.2832 78.4996 32.4922C78.8102 32.3262 79.026 32.1709 79.1471 32.0264C79.2682 31.8818 79.3288 31.7168 79.3288 31.5312C79.3288 31.3477 79.2682 31.1992 79.1471 31.0859C79.026 30.9707 78.862 30.9131 78.6549 30.9131C78.4323 30.9131 78.2565 30.9697 78.1276 31.083C78.0006 31.1963 77.9371 31.3535 77.9371 31.5547Z" fill="#F57170"/>
<path d="M15.7034 31.3158C24.3761 31.3158 31.4068 24.3055 31.4068 15.6579C31.4068 7.01028 24.3761 0 15.7034 0C7.03065 0 0 7.01028 0 15.6579C0 24.3055 7.03065 31.3158 15.7034 31.3158Z" fill="#F57170"/>
<path d="M24.3596 15.9062C24.3596 18.5038 23.6164 20.4934 22.1298 21.875C20.6503 23.2566 18.5106 23.9474 15.7106 23.9474H11.2291V8.16714H16.1977C18.7812 8.16714 20.7876 8.84714 22.2164 10.2071C23.6452 11.5671 24.3596 13.4668 24.3596 15.9062ZM20.8741 15.9925C20.8741 12.6033 19.373 10.9087 16.3709 10.9087H14.5848V21.1842H16.0245C19.2575 21.1842 20.8741 19.4536 20.8741 15.9925Z" fill="white"/>
<path d="M42.1993 23.9474H38.8977V7.15256H42.1993V23.9474ZM45.5334 8.76081C45.5334 7.68865 46.1323 7.15256 47.3302 7.15256C48.5283 7.15256 49.1272 7.68865 49.1272 8.76081C49.1272 9.2717 48.9757 9.67107 48.6726 9.95889C48.3766 10.2395 47.9293 10.3799 47.3302 10.3799C46.1323 10.3799 45.5334 9.84017 45.5334 8.76081ZM48.9757 23.9474H45.6741V11.8802H48.9757V23.9474ZM57.365 24.1633C53.5979 24.1633 51.7144 22.1016 51.7144 17.9785C51.7144 15.9277 52.2267 14.3627 53.2515 13.2833C54.2763 12.1968 55.7448 11.6535 57.6573 11.6535C59.0573 11.6535 60.313 11.9269 61.4243 12.4738L60.4501 15.0211C59.9306 14.8124 59.4469 14.6433 58.9995 14.5138C58.5522 14.3771 58.1048 14.3087 57.6573 14.3087C55.9397 14.3087 55.081 15.5248 55.081 17.9569C55.081 20.3171 55.9397 21.4972 57.6573 21.4972C58.2923 21.4972 58.8805 21.4145 59.4218 21.2491C59.9629 21.0763 60.5042 20.8101 61.0455 20.4503V23.2675C60.5114 23.6057 59.9701 23.8394 59.4218 23.9689C58.8805 24.0984 58.1949 24.1633 57.365 24.1633ZM63.7192 8.76081C63.7192 7.68865 64.3183 7.15256 65.5162 7.15256C66.7141 7.15256 67.313 7.68865 67.313 8.76081C67.313 9.2717 67.1615 9.67107 66.8586 9.95889C66.5626 10.2395 66.1151 10.3799 65.5162 10.3799C64.3183 10.3799 63.7192 9.84017 63.7192 8.76081ZM67.1616 23.9474H63.86V11.8802H67.1616V23.9474ZM79.2097 23.9474L78.766 22.4039H78.5927C78.2391 22.9652 77.7375 23.4005 77.0881 23.7099C76.4386 24.0122 75.6988 24.1633 74.869 24.1633C73.4473 24.1633 72.3756 23.7855 71.654 23.03C70.9322 22.2672 70.5714 21.1734 70.5714 19.7487V11.8802H73.873V18.9284C73.873 19.799 74.0282 20.4538 74.3386 20.8928C74.6487 21.3246 75.1431 21.5405 75.8215 21.5405C76.7452 21.5405 77.4127 21.2345 77.8242 20.6229C78.2356 20.0042 78.4412 18.9824 78.4412 17.5576V11.8802H81.7428V23.9474H79.2097ZM87.8372 17.8922C87.8372 19.0866 88.0321 19.9898 88.4217 20.6014C88.8187 21.213 89.4609 21.5187 90.3486 21.5187C91.2291 21.5187 91.8606 21.2166 92.243 20.6122C92.6326 20.0005 92.8275 19.0938 92.8275 17.8922C92.8275 16.6977 92.6326 15.8018 92.243 15.2046C91.8534 14.6073 91.2145 14.3087 90.327 14.3087C89.4465 14.3087 88.8115 14.6073 88.4217 15.2046C88.0321 15.7946 87.8372 16.6905 87.8372 17.8922ZM96.2049 17.8922C96.2049 19.8566 95.6854 21.3929 94.6462 22.501C93.607 23.6092 92.1601 24.1633 90.3054 24.1633C89.1435 24.1633 88.1187 23.9115 87.231 23.4076C86.3433 22.8968 85.6614 22.1664 85.1852 21.2166C84.7089 20.2669 84.4707 19.1586 84.4707 17.8922C84.4707 15.9206 84.9867 14.3879 86.0186 13.2941C87.0505 12.2004 88.5012 11.6535 90.3702 11.6535C91.5321 11.6535 92.5569 11.9053 93.4446 12.409C94.3321 12.9127 95.0142 13.6359 95.4905 14.5785C95.9667 15.5212 96.2049 16.6257 96.2049 17.8922ZM107.376 20.3639C107.376 21.6016 106.943 22.5442 106.077 23.1917C105.218 23.8394 103.93 24.1633 102.213 24.1633C101.332 24.1633 100.582 24.1021 99.9611 23.9798C99.3406 23.8647 98.7595 23.6919 98.2184 23.4616V20.7417C98.8318 21.0295 99.5209 21.2706 100.286 21.4648C101.058 21.6591 101.737 21.7562 102.321 21.7562C103.519 21.7562 104.118 21.4108 104.118 20.72C104.118 20.461 104.039 20.2523 103.88 20.0941C103.721 19.9286 103.447 19.7452 103.057 19.5436C102.667 19.3349 102.148 19.0938 101.498 18.8204C100.567 18.4319 99.8819 18.0721 99.4416 17.7411C99.0086 17.4101 98.691 17.0323 98.4889 16.6077C98.2942 16.176 98.1966 15.6471 98.1966 15.0211C98.1966 13.9489 98.6117 13.1214 99.4416 12.5386C100.279 11.9485 101.462 11.6535 102.992 11.6535C104.45 11.6535 105.868 11.9701 107.246 12.6033L106.25 14.9779C105.644 14.7189 105.078 14.5066 104.551 14.3411C104.024 14.1756 103.486 14.0928 102.938 14.0928C101.964 14.0928 101.477 14.3555 101.477 14.8808C101.477 15.1758 101.632 15.4312 101.942 15.6471C102.26 15.863 102.949 16.1832 104.01 16.6077C104.955 16.9891 105.648 17.3453 106.088 17.6763C106.528 18.0073 106.853 18.3887 107.062 18.8204C107.272 19.2522 107.376 19.7667 107.376 20.3639Z" fill="#F57170"/>
<path d="M31.579 17.1511C30.883 17.1511 30.3377 17.3811 29.9432 17.8409C29.5486 18.2934 29.3225 18.9387 29.2652 19.7768H33.8713C33.8569 18.9387 33.6452 18.2934 33.2363 17.8409C32.8273 17.3811 32.2749 17.1511 31.579 17.1511ZM32.0418 27.6316C30.1045 27.6316 28.5907 27.079 27.5001 25.9739C26.4096 24.8686 25.8644 23.3037 25.8644 21.2787C25.8644 19.1946 26.3666 17.585 27.371 16.4502C28.3827 15.308 29.7781 14.7368 31.5574 14.7368C33.2578 14.7368 34.5815 15.2375 35.5286 16.2388C36.4757 17.2401 36.9492 18.6235 36.9492 20.3888V22.0353H29.1898C29.2257 22.9996 29.5019 23.7525 30.0184 24.2939C30.535 24.8353 31.2597 25.1061 32.1923 25.1061C32.9171 25.1061 33.6021 25.0281 34.248 24.8725C34.8937 24.7166 35.568 24.4681 36.2711 24.127V26.7527C35.6971 27.0493 35.0838 27.2681 34.4309 27.4091C33.778 27.5573 32.9816 27.6316 32.0418 27.6316Z" fill="#F57170"/>
<mask id="mask0" mask-type="alpha" maskUnits="userSpaceOnUse" x="0" y="0" width="32" height="32">
<path d="M15.7034 31.3158C24.3761 31.3158 31.4068 24.3055 31.4068 15.6579C31.4068 7.01028 24.3761 0 15.7034 0C7.03065 0 0 7.01028 0 15.6579C0 24.3055 7.03065 31.3158 15.7034 31.3158Z" fill="#F57170"/>
</mask>
<g mask="url(#mask0)">
<path d="M31.579 17.1511C30.883 17.1511 30.3377 17.3811 29.9432 17.8409C29.5486 18.2934 29.3225 18.9387 29.2652 19.7768H33.8713C33.8569 18.9387 33.6452 18.2934 33.2363 17.8409C32.8273 17.3811 32.2749 17.1511 31.579 17.1511ZM32.0418 27.6316C30.1045 27.6316 28.5907 27.079 27.5001 25.9739C26.4096 24.8686 25.8644 23.3037 25.8644 21.2787C25.8644 19.1946 26.3666 17.585 27.371 16.4502C28.3827 15.308 29.7781 14.7368 31.5574 14.7368C33.2578 14.7368 34.5815 15.2375 35.5286 16.2388C36.4757 17.2401 36.9492 18.6235 36.9492 20.3888V22.0353H29.1898C29.2257 22.9996 29.5019 23.7525 30.0184 24.2939C30.535 24.8353 31.2597 25.1061 32.1923 25.1061C32.9171 25.1061 33.6021 25.0281 34.248 24.8725C34.8937 24.7166 35.568 24.4681 36.2711 24.127V26.7527C35.6971 27.0493 35.0838 27.2681 34.4309 27.4091C33.778 27.5573 32.9816 27.6316 32.0418 27.6316Z" fill="white"/>
</g>
</g>
<defs>
<clipPath id="clip0">
<rect width="109" height="35" fill="white"/>
</clipPath>
</defs>
</svg>
